<svg xmlns="http://www.w3.org/2000/svg" viewBox="0 0 176 176"><path fill="#e8e8e8" d="M55.5,117c-1,0-2-0.4-2.8-1.2l-20-20c-1.6-1.6-1.6-4.1,0-5.7l20-20c1.6-1.6,4.1-1.6,5.7,0 c1.6,1.6,1.6,4.1,0,5.7L41.2,93l17.2,17.2c1.6,1.6,1.6,4.1,0,5.7C57.5,116.6,56.5,117,55.5,117z"/><path fill="#e8e8e8" d="M120.5,117c-1,0-2-0.4-2.8-1.2c-1.6-1.6-1.6-4.1,0-5.7L134.8,93l-17.2-17.2c-1.6-1.6-1.6-4.1,0-5.7 c1.6-1.6,4.1-1.6,5.7,0l20,20c1.6,1.6,1.6,4.1,0,5.7l-20,20C122.5,116.6,121.5,117,120.5,117z"/><path fill="#e8e8e8" d="M91.2,105l23.3-55c0,0-41,16-48,76h1c5.2-11.7,13.8-13.4,18.3-15.5C88.2,109.4,90.2,107.4,91.2,105z"/></svg>